<?xml version="1.0" encoding="utf-8"?>
<!-- Generator: Adobe Illustrator 16.0.0, SVG Export Plug-In . SVG Version: 6.00 Build 0)  -->
<!DOCTYPE svg PUBLIC "-//W3C//DTD SVG 1.1//EN" "http://www.w3.org/Graphics/SVG/1.1/DTD/svg11.dtd">
<svg version="1.1" id="Layer_1" xmlns="http://www.w3.org/2000/svg" xmlns:xlink="http://www.w3.org/1999/xlink" x="0px" y="0px"
	 width="89.613px" height="143.664px" viewBox="0 0 89.613 143.664" enable-background="new 0 0 89.613 143.664"
	 xml:space="preserve">
<g>
	<path d="M27.964,74.739c3.064-1.449,5.073-2.939,7.264-3.291c2.411-0.385,5.857-0.631,7.269,0.719
		c1.662,1.589,2.708,5.264,2.078,7.482c-1.052,3.702-3.093,7.48-5.711,10.305c-5.303,5.721-11.203,10.901-16.983,16.165
		c-8.147,7.418-16.461,14.715-20.894,25.15c-2.609,6.143,0.085,11.031,6.66,12.174c2.377,0.414,5.016,0.215,7.381-0.35
		c16.767-4.008,33.58-4.689,50.54-1.35c3.42,0.674,6.92,1.135,10.4,1.265c6.324,0.235,10.202-2.226,12.079-7.618
		c1.924-5.527,2.809-11.229-1.729-15.929c-3.619-3.751-10.483-3.935-15.86-0.899c-3.331,1.882-6.475,4.104-9.854,5.888
		c-4.018,2.121-7.988,2.146-11.516-1.242c-3.381-3.247-3.136-7.376-1.002-10.57c4.291-6.425,9.152-12.517,14.247-18.336
		c3.027-3.459,3.487-6.179-0.379-8.422c-7.98-4.631-9.503-12.461-10.159-20.492c-0.142-1.736,2.082-4.219,3.852-5.424
		c2.416-1.645,5.569-2.162,8.17-3.594c2.823-1.553,2.816-3.539-0.148-5.141c-1.022-0.553-2.152-0.9-3.207-1.396
		c-6.204-2.916-6.441-3.981-2.045-9.025c7.896-9.061,8.2-22.213,0.733-31.756C52.051-0.02,39.722-2.609,29.476,2.818
		C15.384,10.283,12.338,29.19,23.274,41.32c3.817,4.233,3.604,5.38-1.503,7.986c-0.741,0.378-1.581,0.598-2.253,1.065
		c-1.437,1-2.794,2.114-4.184,3.182c1.348,1.318,2.621,2.727,4.074,3.916c0.742,0.606,1.792,0.858,2.729,1.202
		c8.084,2.97,8.66,4.042,6.633,12.406C28.547,71.999,28.361,72.931,27.964,74.739z"/>
</g>
</svg>
