# Blender v2.80 (sub 75) OBJ File: 'music object.blend'
# www.blender.org
mtllib c#.mtl
o Cylinder.005_Cylinder.007
v 0.250998 -0.170029 -1.261850
v 0.250998 0.170029 -1.261850
v 0.492349 -0.170029 -1.188637
v 0.492349 0.170029 -1.188637
v 0.714781 -0.170029 -1.069745
v 0.714781 0.170029 -1.069745
v 0.909743 -0.170029 -0.909743
v 0.909743 0.170029 -0.909743
v 1.069745 -0.170029 -0.714781
v 1.069745 0.170029 -0.714781
v 1.188637 -0.170029 -0.492349
v 1.188637 0.170029 -0.492349
v 1.261850 -0.170029 -0.250998
v 1.261850 0.170029 -0.250998
v 0.497224 0.170029 -0.744149
v 0.497224 -0.170029 -0.744149
v 0.826854 0.170029 -0.342494
v 0.826854 -0.170029 -0.342494
v 0.632846 0.170029 -0.632846
v 0.632846 -0.170029 -0.632846
v 0.744149 0.170029 -0.497224
v 0.744149 -0.170029 -0.497224
v 0.342494 0.170029 -0.826854
v 0.342494 -0.170029 -0.826854
v 1.268478 0.170029 -0.183706
v 0.875021 0.170029 -0.183706
v 0.183706 0.170029 -1.268478
v 0.183706 0.170029 -0.875021
v 1.268478 -0.170029 -0.183706
v 0.875021 -0.170029 -0.183706
v 0.183706 -0.170029 -1.268478
v 0.183706 -0.170029 -0.875021
vt 0.968750 0.500000
vt 0.968750 1.000000
vt 0.937500 1.000000
vt 0.937500 0.500000
vt 0.906250 1.000000
vt 0.906250 0.500000
vt 0.875000 1.000000
vt 0.875000 0.500000
vt 0.843750 1.000000
vt 0.843750 0.500000
vt 0.812500 1.000000
vt 0.812500 0.500000
vt 0.781250 1.000000
vt 0.781250 0.500000
vt 0.772872 1.000000
vt 0.772872 0.500000
vt 0.296822 0.485388
vt 0.284269 0.486625
vt 0.284269 0.413229
vt 0.313889 0.404243
vt 0.342753 0.388815
vt 0.368053 0.368053
vt 0.388815 0.342753
vt 0.404244 0.313890
vt 0.413229 0.284269
vt 0.486625 0.284269
vt 0.485388 0.296822
vt 0.471731 0.341844
vt 0.449553 0.383337
vt 0.419706 0.419706
vt 0.383337 0.449553
vt 0.341844 0.471731
vt 0.843750 0.702505
vt 0.843750 0.797495
vt 0.875000 0.797495
vt 0.875000 0.702505
vt 0.906250 0.797495
vt 0.906250 0.702505
vt 0.937500 0.797495
vt 0.937500 0.702505
vt 0.812500 0.702505
vt 0.812500 0.797495
vt 0.967055 0.797495
vt 0.967055 0.702505
vt 0.384306 0.500000
vt 0.615693 0.500000
vt 0.615693 0.500000
vt 0.384307 0.500000
vt 0.615693 0.500000
vt 0.384307 0.500000
vt 0.384307 0.500000
vt 0.615694 0.500000
vt 0.784269 0.413229
vt 0.784269 0.486625
vt 0.796822 0.485388
vt 0.841844 0.471731
vt 0.883337 0.449553
vt 0.919706 0.419706
vt 0.949553 0.383337
vt 0.971731 0.341844
vt 0.985388 0.296822
vt 0.986625 0.284269
vt 0.913229 0.284269
vt 0.904244 0.313890
vt 0.888815 0.342753
vt 0.868052 0.368053
vt 0.842753 0.388815
vt 0.813889 0.404243
vt 0.977128 0.500000
vt 0.977128 1.000000
vt 0.782945 0.702505
vt 0.782945 0.797495
vn 0.2903 0.0000 -0.9569
vn 0.4714 0.0000 -0.8819
vn 0.6344 0.0000 -0.7730
vn 0.7730 0.0000 -0.6344
vn 0.8819 0.0000 -0.4714
vn 0.9569 0.0000 -0.2903
vn 0.9952 0.0000 -0.0980
vn -0.0000 1.0000 0.0000
vn -0.7730 -0.0000 0.6344
vn -0.6344 -0.0000 0.7730
vn -0.4714 0.0000 0.8819
vn -0.8819 0.0000 0.4714
vn -0.2903 -0.0000 0.9569
vn -1.0000 0.0000 0.0000
vn -0.0000 0.0000 1.0000
vn 0.0000 -1.0000 -0.0000
vn 0.0980 0.0000 -0.9952
vn -0.9569 0.0000 0.2903
usemtl None
s off
f 1/1/1 2/2/1 4/3/1 3/4/1
f 3/4/2 4/3/2 6/5/2 5/6/2
f 5/6/3 6/5/3 8/7/3 7/8/3
f 7/8/4 8/7/4 10/9/4 9/10/4
f 9/10/5 10/9/5 12/11/5 11/12/5
f 11/12/6 12/11/6 14/13/6 13/14/6
f 13/14/7 14/13/7 25/15/7 29/16/7
f 2/17/8 27/18/8 28/19/8 23/20/8 15/21/8 19/22/8 21/23/8 17/24/8 26/25/8 25/26/8 14/27/8 12/28/8 10/29/8 8/30/8 6/31/8 4/32/8
f 22/33/9 21/34/9 19/35/9 20/36/9
f 20/36/10 19/35/10 15/37/10 16/38/10
f 16/38/11 15/37/11 23/39/11 24/40/11
f 18/41/12 17/42/12 21/34/12 22/33/12
f 24/40/13 23/39/13 28/43/13 32/44/13
f 32/45/14 28/46/14 27/47/14 31/48/14
f 26/49/15 30/50/15 29/51/15 25/52/15
f 32/53/16 31/54/16 1/55/16 3/56/16 5/57/16 7/58/16 9/59/16 11/60/16 13/61/16 29/62/16 30/63/16 18/64/16 22/65/16 20/66/16 16/67/16 24/68/16
f 31/69/17 27/70/17 2/2/17 1/1/17
f 30/71/18 26/72/18 17/42/18 18/41/18
