# Blender v2.80 (sub 75) OBJ File: 'music object.blend'
# www.blender.org
mtllib g.mtl
o Cylinder.003_Cylinder.004
v -0.139434 -0.094454 0.700982
v -0.139434 0.094454 0.700982
v -0.273510 -0.094454 0.660310
v -0.273510 0.094454 0.660310
v -0.397075 -0.094454 0.594263
v -0.397075 0.094454 0.594263
v -0.505380 -0.094454 0.505379
v -0.505380 0.094454 0.505379
v -0.594264 -0.094454 0.397074
v -0.594264 0.094454 0.397074
v -0.660311 -0.094454 0.273509
v -0.660311 0.094454 0.273509
v -0.700982 -0.094454 0.139433
v -0.700982 0.094454 0.139433
v -0.459333 0.094454 0.190262
v -0.459333 -0.094454 0.190262
v -0.413389 0.094454 0.276217
v -0.413389 -0.094454 0.276217
v -0.351558 0.094454 0.351558
v -0.351558 -0.094454 0.351558
v -0.190262 0.094454 0.459333
v -0.190262 -0.094454 0.459333
v -0.276218 0.094454 0.413389
v -0.276218 -0.094454 0.413389
v -0.486091 -0.094454 0.102052
v -0.704664 -0.094454 0.102052
v -0.102052 -0.094454 0.486091
v -0.102052 -0.094454 0.704664
v -0.486091 0.094454 0.102052
v -0.704664 0.094454 0.102052
v -0.102052 0.094454 0.704664
v -0.102052 0.094454 0.486091
vt 0.468750 0.500000
vt 0.468750 1.000000
vt 0.437500 1.000000
vt 0.437500 0.500000
vt 0.406250 1.000000
vt 0.406250 0.500000
vt 0.375000 1.000000
vt 0.375000 0.500000
vt 0.343750 1.000000
vt 0.343750 0.500000
vt 0.312500 1.000000
vt 0.312500 0.500000
vt 0.281250 1.000000
vt 0.281250 0.500000
vt 0.272872 1.000000
vt 0.272872 0.500000
vt 0.406250 0.702505
vt 0.406250 0.797495
vt 0.437500 0.797495
vt 0.437500 0.702505
vt 0.375000 0.702505
vt 0.375000 0.797495
vt 0.312500 0.702505
vt 0.312500 0.797495
vt 0.343750 0.797495
vt 0.343750 0.702505
vt 0.467055 0.797495
vt 0.467055 0.702505
vt 0.282945 0.702505
vt 0.282945 0.797495
vt 0.513375 0.215731
vt 0.586771 0.215731
vt 0.595757 0.186110
vt 0.611185 0.157247
vt 0.631947 0.131948
vt 0.657247 0.111185
vt 0.686110 0.095757
vt 0.715731 0.086771
vt 0.715731 0.013375
vt 0.703178 0.014612
vt 0.658156 0.028269
vt 0.616663 0.050447
vt 0.580294 0.080294
vt 0.550447 0.116663
vt 0.528269 0.158156
vt 0.514611 0.203179
vt 0.384307 1.000000
vt 0.615693 1.000000
vt 0.615693 1.000000
vt 0.384307 1.000000
vt 0.215731 0.013375
vt 0.215731 0.086772
vt 0.186110 0.095757
vt 0.157246 0.111185
vt 0.131947 0.131948
vt 0.111185 0.157247
vt 0.095757 0.186110
vt 0.086771 0.215731
vt 0.013375 0.215731
vt 0.014611 0.203179
vt 0.028269 0.158156
vt 0.050447 0.116663
vt 0.080294 0.080294
vt 0.116663 0.050447
vt 0.158156 0.028269
vt 0.203178 0.014612
vt 0.615694 0.000000
vt 0.384306 0.000000
vt 0.384307 0.000000
vt 0.615694 0.000000
vt 0.477128 0.500000
vt 0.477128 1.000000
vn -0.2903 0.0000 0.9569
vn -0.4714 0.0000 0.8819
vn -0.6344 0.0000 0.7730
vn -0.7730 0.0000 0.6344
vn -0.8819 0.0000 0.4714
vn -0.9569 0.0000 0.2903
vn -0.9952 0.0000 0.0980
vn 0.4714 0.0000 -0.8819
vn 0.6344 0.0000 -0.7730
vn 0.8819 0.0000 -0.4714
vn 0.2903 0.0000 -0.9569
vn 0.7730 0.0000 -0.6344
vn 0.9569 0.0000 -0.2903
vn 0.0000 -1.0000 -0.0000
vn 1.0000 0.0000 0.0000
vn -0.0000 1.0000 0.0000
vn 0.0000 -0.0000 -1.0000
vn -0.0980 0.0000 0.9952
usemtl None
s off
f 1/1/1 2/2/1 4/3/1 3/4/1
f 3/4/2 4/3/2 6/5/2 5/6/2
f 5/6/3 6/5/3 8/7/3 7/8/3
f 7/8/4 8/7/4 10/9/4 9/10/4
f 9/10/5 10/9/5 12/11/5 11/12/5
f 11/12/6 12/11/6 14/13/6 13/14/6
f 13/14/7 14/13/7 30/15/7 26/16/7
f 24/17/8 23/18/8 21/19/8 22/20/8
f 20/21/9 19/22/9 23/18/9 24/17/9
f 16/23/10 15/24/10 17/25/10 18/26/10
f 22/20/11 21/19/11 32/27/11 27/28/11
f 18/26/12 17/25/12 19/22/12 20/21/12
f 25/29/13 29/30/13 15/24/13 16/23/13
f 26/31/14 25/32/14 16/33/14 18/34/14 20/35/14 24/36/14 22/37/14 27/38/14 28/39/14 1/40/14 3/41/14 5/42/14 7/43/14 9/44/14 11/45/14 13/46/14
f 27/47/15 32/48/15 31/49/15 28/50/15
f 31/51/16 32/52/16 21/53/16 23/54/16 19/55/16 17/56/16 15/57/16 29/58/16 30/59/16 14/60/16 12/61/16 10/62/16 8/63/16 6/64/16 4/65/16 2/66/16
f 29/67/17 25/68/17 26/69/17 30/70/17
f 28/71/18 31/72/18 2/2/18 1/1/18
